<?xml version="1.0" encoding="UTF-8"?><svg id="Layer_1" xmlns="http://www.w3.org/2000/svg" viewBox="0 0 600 190"><defs><style>.cls-1{fill:#fff;}.cls-2{fill:#4d4d4d;}</style></defs><g id="Layer_2"><g id="Layer_2-2"><path class="cls-2" d="M584.11,190H15.89C6.98,189.85-.13,182.52,0,173.61V16.39C-.13,7.48,6.98,.15,15.89,0H584.11c8.91,.15,16.02,7.48,15.89,16.39V173.61c.13,8.91-6.98,16.24-15.89,16.39"/><g><g id="_Group_2"><g id="_Group_3"><path id="_Path_" class="cls-1" d="M125.9,91.56c.11-8.69,4.66-16.71,12.07-21.26-4.7-6.71-12.29-10.8-20.47-11.05-8.6-.91-16.93,5.12-21.31,5.12s-11.26-5.06-18.48-4.9c-9.55,.33-18.23,5.64-22.86,14-9.91,17.15-2.52,42.35,6.96,56.2,4.75,6.79,10.3,14.33,17.56,14.11,7.1-.3,9.76-4.53,18.32-4.53s10.98,4.53,18.43,4.36c7.63-.12,12.43-6.82,17-13.67,3.41-4.84,6.04-10.18,7.78-15.84-9.08-3.82-14.98-12.7-15-22.54Z"/><path id="_Path_2" class="cls-1" d="M111.91,50.14c4.16-4.99,6.21-11.4,5.71-17.87-6.33,.68-12.17,3.71-16.38,8.5-4.16,4.74-6.26,10.93-5.86,17.22,6.42,.05,12.5-2.84,16.52-7.84Z"/></g></g><path class="cls-1" d="M197.55,82.69l-22.08,61.14h9.88l5.59-16.52h23.31l5.59,16.52h10.04l-22.09-61.14h-10.24Zm-4.2,36.99l9.11-26.82h.26l9.11,26.82h-18.48Z"/><path class="cls-1" d="M258.8,98.74c-5.82-.18-11.28,2.84-14.2,7.88h-.16v-7.41h-8.86v59.37h9.15v-22.13h.21c2.79,5.08,8.24,8.11,14.02,7.8,11.19,0,18.6-8.9,18.6-22.76s-7.45-22.76-18.76-22.76Zm9.38,22.76c0,9.11-4.67,15-11.78,15s-11.7-6.01-11.7-15,4.71-14.96,11.7-14.96,11.78,5.94,11.78,14.96Z"/><path class="cls-1" d="M307.87,98.74c-5.82-.18-11.28,2.84-14.2,7.88h-.16v-7.41h-8.86v59.37h9.13v-22.13h.21c2.79,5.08,8.24,8.11,14.02,7.8,11.19,0,18.61-8.9,18.61-22.76s-7.44-22.76-18.75-22.76Zm-2.42,37.75c-6.99,0-11.7-6.01-11.7-15s4.71-14.96,11.7-14.96,11.78,5.94,11.78,14.96-4.67,15-11.78,15Z"/><path class="cls-1" d="M378.85,109.3l-6.74-1.66c-7.88-1.94-11.11-4.48-11.11-8.81,0-5.43,5.05-9.15,12.42-9.15s12.42,3.69,12.97,9.79h9.21c-.28-10.64-9.13-17.8-22.06-17.8s-22.24,7.17-22.24,17.75c0,8.53,5.21,13.78,16.44,16.48l7.92,1.91c7.92,1.94,11.26,4.79,11.26,9.53,0,5.47-5.55,9.45-13.26,9.45s-13.94-3.97-14.62-10.04h-9.37c.59,11.07,9.75,18.06,23.31,18.06,14.48,0,23.59-7.17,23.59-18.6,.01-8.95-5.2-13.98-17.74-16.9Z"/><path class="cls-1" d="M416.35,88.66h-9.21v10.55h-6.48v7.25h6.48v25.59c0,8.64,3.52,12.03,12.54,12.03,1.72,.04,3.43-.1,5.12-.42v-7.17c-1,.12-2,.19-3.01,.21-3.73,0-5.43-1.78-5.43-5.6v-24.57h8.43v-7.25h-8.48l.03-10.64Z"/><path class="cls-1" d="M450.88,98.66c-12.89,0-21.15,8.81-21.15,22.84s8.19,22.84,21.15,22.84,21.14-8.77,21.14-22.84-8.22-22.84-21.14-22.84Zm11.79,22.84c0,9.66-4.41,15.29-11.82,15.29s-11.82-5.63-11.82-15.29,4.43-15.26,11.85-15.26,11.79,5.64,11.79,15.26Z"/><path class="cls-1" d="M488.51,106.8h-.25v-7.59h-8.7v44.57h9.15v-26.44c-.05-.47-.07-.94-.05-1.41,.2-5.08,4.49-9.04,9.58-8.83,0,0,.01,0,.02,0,1.39-.04,2.77,.15,4.09,.55v-8.58c-1.03-.23-2.08-.34-3.13-.34-5.03-.18-9.5,3.18-10.71,8.07Z"/><path class="cls-1" d="M513.58,123.78h31.48v-3.13c0-13.51-7.75-21.99-20.08-21.99s-20.64,9.07-20.64,23.05,8.06,22.62,21.03,22.62c10.08,0,17.95-5.55,19.19-13.65h-8.69c-1.68,4.13-5.86,6.67-10.3,6.25-6.42,.22-11.8-4.8-12.02-11.22-.02-.47,0-.94,.04-1.41v-.53Zm0-6.49c0-6.22,5.04-11.26,11.26-11.26,.03,0,.06,0,.09,0h.83c5.89,.33,10.41,5.36,10.1,11.26h-22.28Z"/><path class="cls-1" d="M206.06,51.22c.11-.85,.13-1.71,.07-2.57-.52-7.16-6.74-12.54-13.9-12.03h-10.6v29.38h10.6c8.75,0,13.83-5.39,13.83-14.78Zm-19.88,10.63v-21.08h5.55c.59-.03,1.18,0,1.77,.07,5.04,.67,8.59,5.3,7.92,10.34,0,.03,0,.06-.01,.09,.09,.63,.12,1.27,.08,1.9-.29,5.08-4.64,8.96-9.72,8.67-.01,0-.03,0-.04,0h-5.55Z"/><path class="cls-1" d="M232.12,52.9c-.57-5.77-5.71-10-11.48-9.43-5.77,.57-10,5.71-9.43,11.48h0c-.06,.68-.06,1.37,0,2.05,.57,5.77,5.71,10,11.48,9.43,5.77-.57,10-5.71,9.43-11.48,.06-.68,.06-1.37,0-2.05Zm-10.45,9.63c-3.8,0-5.94-2.78-5.94-7.63s2.14-7.62,5.94-7.62,5.95,2.8,5.95,7.62h0c0,4.82-2.15,7.63-5.95,7.63Z"/><polygon class="cls-1" points="245.89 65.99 250.45 49.67 250.79 49.67 255.38 65.99 259.92 65.99 266 43.83 261.63 43.83 257.68 60.74 257.33 60.74 252.78 43.83 248.57 43.83 244.01 60.74 243.69 60.74 239.71 43.83 235.28 43.83 241.39 65.99 245.89 65.99"/><path class="cls-1" d="M285.58,66h4.38v-14.33c.06-.53,.06-1.06,0-1.59-.27-3.95-3.69-6.93-7.64-6.66-.03,0-.06,0-.09,0-2.82-.24-5.48,1.35-6.61,3.95h-.28v-3.59h-4.22v22.21h4.38v-13c-.03-.26-.03-.51,0-.77,.15-2.8,2.52-4.95,5.31-4.84,3.23,0,4.78,1.77,4.78,5.33l-.02,13.28Z"/><rect class="cls-1" x="296.95" y="35.17" width="4.37" height="30.82"/><path class="cls-1" d="M328.32,52.9c-.65-5.77-5.86-9.92-11.63-9.26-5.65,.64-9.76,5.65-9.29,11.31-.06,.68-.06,1.37,0,2.05,.48,5.79,5.56,10.09,11.34,9.61,5.79-.48,10.09-5.56,9.61-11.34,0-.11-.02-.21-.03-.32,.06-.68,.06-1.37,0-2.05Zm-10.45,9.63c-3.81,0-5.95-2.78-5.95-7.63s2.14-7.62,5.95-7.62,5.95,2.8,5.95,7.62-2.16,7.63-5.95,7.63Z"/><path class="cls-1" d="M351.53,66v-15.15c0-4.69-3.13-7.45-8.69-7.45-5.03,0-8.61,2.44-9.06,6.25h4.24c.48-1.58,2.18-2.47,4.62-2.47,3,0,4.54,1.32,4.54,3.66v1.91l-6.01,.34c-5.27,.33-8.24,2.63-8.24,6.62v.67c.38,3.67,3.66,6.35,7.33,5.97,0,0,.01,0,.02,0,2.69,.12,5.23-1.21,6.66-3.48h.35v3.07l4.24,.05Zm-4.35-8.19v.17c-.29,2.87-2.85,4.96-5.72,4.67,0,0,0,0,0,0-2.39,0-4.09-1.16-4.09-3.15s1.39-2.99,4.44-3.19l5.42-.35-.04,1.85Z"/><path class="cls-1" d="M366.45,66.36c2.86,.11,5.54-1.38,6.96-3.87h.35v3.51h4.2v-30.83h-4.34v12.18h-.33c-1.32-2.51-3.97-4.02-6.8-3.89-5.6,0-9.21,4.43-9.21,11.44s3.56,11.45,9.17,11.45Zm1.24-18.97c3.66,0,5.97,2.91,5.97,7.53s-2.27,7.5-5.97,7.5-5.92-2.83-5.92-7.52h0c.03-4.67,2.27-7.51,5.95-7.51h-.03Z"/><path class="cls-1" d="M407.56,66.38c5.77-.57,10-5.7,9.44-11.47,.06-.68,.06-1.37,0-2.05-.57-5.77-5.71-10-11.48-9.43-5.77,.57-10,5.71-9.43,11.48-.06,.68-.06,1.37,0,2.05,.57,5.77,5.7,9.99,11.47,9.43Zm-6.95-11.47c0-4.81,2.14-7.62,5.94-7.62s5.97,2.8,5.97,7.62-2.16,7.63-5.95,7.63-5.96-2.78-5.96-7.63Z"/><path class="cls-1" d="M432.54,47.42c3.23,0,4.78,1.77,4.78,5.33v13.31h4.38v-14.33c.08-.53,.1-1.06,.06-1.59-.31-3.97-3.77-6.95-7.74-6.65-2.82-.23-5.48,1.36-6.61,3.95h-.33v-3.64h-4.21v22.21h4.37v-13c-.02-.26-.02-.51,0-.77,.16-2.78,2.51-4.92,5.29-4.82Z"/><path class="cls-1" d="M462.04,60.17c0,4.27,1.94,5.99,6.81,5.99,.8-.01,1.59-.09,2.37-.23v-3.72c-.55,.06-1.11,.09-1.67,.09-2.17,0-3.13-1.02-3.13-3.34v-11.35h4.8v-3.69h-4.8v-5.63h-4.38v5.63h-3.52v3.69h3.52v12.55Z"/><path class="cls-1" d="M481.58,53.06c-.3-2.81,1.74-5.33,4.55-5.63,.34-.04,.68-.04,1.02,0,3.07,0,4.74,1.8,4.74,5.34v13.24h4.38v-14.33c.06-.45,.08-.91,.05-1.37-.21-4.02-3.65-7.1-7.67-6.89,0,0-.01,0-.02,0-2.87-.24-5.57,1.35-6.76,3.97h-.35v-12.21h-4.34v30.83h4.38v-12.95Z"/><path class="cls-1" d="M512.19,66.42c4.33,.47,8.38-2.23,9.6-6.41h-4.21c-1.05,1.88-3.13,2.94-5.27,2.68-.19,.02-.38,.02-.56,0-3.22-.27-5.61-3.09-5.35-6.31,0,0,0-.01,0-.02v-.3h15.64v-1.49c0-6.96-3.72-11.18-9.89-11.18-.48-.01-.97,.02-1.44,.09-5.59,.76-9.51,5.89-8.77,11.49-.08,.55-.11,1.1-.09,1.65,.14,5.56,4.77,9.94,10.32,9.8,0,0,.01,0,.02,0Zm0-19.3c.17-.01,.34-.01,.51,0,2.95,.22,5.16,2.78,4.94,5.73h-11.24v-.14c.04-3.13,2.61-5.63,5.74-5.59h.04Z"/></g></g></g></svg>